<svg width="24" height="24" viewBox="0 0 24 24" fill="none" xmlns="http://www.w3.org/2000/svg">
<path d="M12 0C18.6165 0 24 4.368 24 9.738C24 11.8875 23.1675 13.8225 21.4275 15.729C18.9105 18.627 13.281 22.1565 12 22.6965C10.755 23.2215 10.899 22.401 10.956 22.077L10.9605 22.05L11.1315 21.0225C11.172 20.7165 11.214 20.241 11.0925 19.938C10.9575 19.6035 10.4265 19.4295 10.0365 19.3455C4.269 18.585 0 14.5515 0 9.738C0 4.368 5.385 0 12 0ZM7.533 11.529H5.2455V7.377C5.2455 7.3152 5.22105 7.25591 5.17749 7.21207C5.13393 7.16822 5.0748 7.1434 5.013 7.143H4.17C4.13927 7.143 4.10884 7.14905 4.08045 7.16081C4.05206 7.17257 4.02627 7.18981 4.00454 7.21154C3.98281 7.23327 3.96557 7.25906 3.95381 7.28745C3.94205 7.31584 3.936 7.34627 3.936 7.377V12.606C3.936 12.6675 3.9615 12.726 4.002 12.7665V12.768L4.005 12.771L4.008 12.774C4.0515 12.8158 4.10965 12.839 4.17 12.8385H7.533C7.662 12.8385 7.7655 12.7335 7.7655 12.6045V11.7645C7.7657 11.7338 7.75984 11.7033 7.74826 11.6748C7.73669 11.6464 7.71961 11.6205 7.69802 11.5986C7.67644 11.5767 7.65075 11.5593 7.62243 11.5474C7.59412 11.5354 7.56373 11.5292 7.533 11.529ZM8.7195 7.143C8.65744 7.143 8.59792 7.16765 8.55404 7.21154C8.51015 7.25542 8.4855 7.31494 8.4855 7.377V12.606C8.4855 12.735 8.5905 12.8385 8.7195 12.8385H9.5625C9.6915 12.8385 9.795 12.7335 9.795 12.606V7.377C9.795 7.3152 9.77055 7.25591 9.72699 7.21207C9.68343 7.16822 9.6243 7.1434 9.5625 7.143H8.7195ZM14.514 7.143C14.4519 7.143 14.3924 7.16765 14.3485 7.21154C14.3047 7.25542 14.28 7.31494 14.28 7.377V10.482L11.8845 7.248C11.8784 7.24013 11.8719 7.23261 11.865 7.2255C11.8603 7.22025 11.8553 7.21374 11.85 7.209L11.8455 7.2045C11.8404 7.19958 11.8348 7.19507 11.829 7.191L11.82 7.185L11.8155 7.182C11.8132 7.18025 11.8106 7.17874 11.808 7.1775L11.796 7.17H11.793L11.7885 7.167L11.7735 7.161L11.7675 7.158C11.7626 7.15622 11.7576 7.15472 11.7525 7.1535H11.7495L11.745 7.152L11.7315 7.149H11.7225L11.718 7.1475H11.712L11.709 7.146H10.848C10.7862 7.146 10.7269 7.17045 10.6831 7.21401C10.6392 7.25757 10.6144 7.3167 10.614 7.3785V12.6075C10.614 12.7365 10.719 12.84 10.848 12.84H11.688C11.8185 12.84 11.9235 12.735 11.9235 12.6075V9.5025L14.3235 12.7425C14.3395 12.7648 14.3593 12.7841 14.382 12.7995L14.3835 12.801L14.3985 12.81L14.4045 12.813C14.4084 12.8153 14.4124 12.8173 14.4165 12.819L14.427 12.8235L14.4345 12.8265C14.4395 12.8282 14.4445 12.8297 14.4495 12.831H14.454C14.4735 12.8366 14.4937 12.8396 14.514 12.84H15.354C15.4845 12.84 15.5895 12.735 15.5895 12.6075V7.377C15.5895 7.31494 15.5648 7.25542 15.521 7.21154C15.4771 7.16765 15.4176 7.143 15.3555 7.143H14.514ZM20.2365 8.2185V7.3785C20.2367 7.34777 20.2308 7.3173 20.2193 7.28884C20.2077 7.26037 20.1906 7.23446 20.169 7.2126C20.1474 7.19073 20.1217 7.17333 20.0934 7.16139C20.0651 7.14944 20.0347 7.1432 20.004 7.143H16.641C16.5805 7.14307 16.5223 7.16675 16.479 7.209H16.4775L16.476 7.212L16.473 7.2165C16.4311 7.25948 16.4075 7.31699 16.407 7.377V12.606C16.407 12.6675 16.4325 12.726 16.473 12.7665L16.476 12.771L16.479 12.774C16.5226 12.8157 16.5807 12.8388 16.641 12.8385H20.004C20.133 12.8385 20.2365 12.7335 20.2365 12.6045V11.7645C20.2367 11.7338 20.2308 11.7033 20.2193 11.6748C20.2077 11.6464 20.1906 11.6205 20.169 11.5986C20.1474 11.5767 20.1217 11.5593 20.0934 11.5474C20.0651 11.5354 20.0347 11.5292 20.004 11.529H17.715V10.6455H20.0025C20.1315 10.6455 20.235 10.5405 20.235 10.4115V9.5715C20.2352 9.54077 20.2293 9.5103 20.2178 9.48184C20.2062 9.45337 20.1891 9.42746 20.1675 9.4056C20.1459 9.38373 20.1202 9.36633 20.0919 9.35439C20.0636 9.34244 20.0332 9.3362 20.0025 9.336H17.715V8.4525H20.0025C20.1315 8.4525 20.235 8.3475 20.235 8.2185H20.2365Z" fill="white"/>
</svg>
