<svg width="1920" height="188" viewBox="0 0 1920 188" fill="none" xmlns="http://www.w3.org/2000/svg">
  <path d="M1920 182.834C1850.66 188.495 1664.98 193.23 1477.02 166.879C1242.07 133.94 1040.15 94.8258 706.08 112.324C372.008 129.823 248.413 151.439 1.63266e-05 131.882" stroke="#BF9D7D"/>
  <path d="M1920 170.834C1850.66 176.495 1664.98 181.23 1477.02 154.879C1242.07 121.94 1040.15 82.8258 706.08 100.324C372.008 117.823 248.413 139.439 1.63266e-05 119.882" stroke="#BF9D7D"/>
  <path d="M1920 158.834C1850.66 164.495 1664.98 169.23 1477.02 142.879C1242.07 109.94 1040.15 70.8258 706.08 88.3245C372.008 105.823 248.413 127.439 1.63266e-05 107.882" stroke="#BF9D7D"/>
  <path d="M1920 146.834C1850.66 152.495 1664.98 157.23 1477.02 130.879C1242.07 97.9405 1040.15 58.8258 706.08 76.3245C372.008 93.8232 248.413 115.439 1.63266e-05 95.8818" stroke="#BF9D7D"/>
  <path d="M1920 134.834C1850.66 140.495 1664.98 145.23 1477.02 118.879C1242.07 85.9405 1040.15 46.8258 706.08 64.3245C372.008 81.8232 248.413 103.439 1.63266e-05 83.8818" stroke="#BF9D7D"/>
  <path d="M1920 122.834C1850.66 128.495 1664.98 133.23 1477.02 106.879C1242.07 73.9405 1040.15 34.8258 706.08 52.3245C372.008 69.8232 248.413 91.4391 1.63266e-05 71.8818" stroke="#BF9D7D"/>
  <path d="M1920 110.834C1850.66 116.495 1664.98 121.23 1477.02 94.8791C1242.07 61.9405 1040.15 22.8258 706.08 40.3245C372.008 57.8232 248.413 79.4391 1.63266e-05 59.8818" stroke="#BF9D7D"/>
  <path d="M1920 98.8338C1850.66 104.495 1664.98 109.23 1477.02 82.8791C1242.07 49.9405 1040.15 10.8258 706.08 28.3245C372.008 45.8232 248.413 67.4391 1.63266e-05 47.8818" stroke="#BF9D7D"/>
  <path d="M1920 86.8338C1850.66 92.4951 1664.98 97.2301 1477.02 70.8791C1242.07 37.9405 1040.15 -1.17417 706.08 16.3245C372.008 33.8232 248.413 55.4391 1.63266e-05 35.8818" stroke="#BF9D7D"/>
  <path d="M1920 74.8338C1850.66 80.4951 1664.98 85.2301 1477.02 58.8791C1242.07 25.9405 1040.15 -13.1742 706.08 4.32449C372.008 21.8232 248.413 43.4391 1.63266e-05 23.8818" stroke="#BF9D7D"/>
</svg>